<svg width="52" height="52" viewBox="0 0 52 52" fill="none" xmlns="http://www.w3.org/2000/svg">
<path d="M4.33325 20.0643C4.33325 28.1838 13.042 36.7714 19.417 41.9699C22.3029 44.3233 23.7459 45.5 25.9999 45.5C28.2539 45.5 29.6969 44.3233 32.5829 41.9699C38.9579 36.7714 47.6666 28.184 47.6666 20.0642C47.6666 7.25684 35.7495 1.43571 25.9999 11.914C16.2503 1.43571 4.33325 7.25725 4.33325 20.0643Z" fill="#9A8FE1"/>
<path d="M21.8686 23.2843C22.0625 23.0072 22.2237 22.7771 22.3671 22.5801C22.4885 22.7914 22.6239 23.0375 22.7868 23.3339L26.4925 30.0712C26.8521 30.7257 27.2051 31.3677 27.5593 31.8335C27.9385 32.3319 28.605 33.015 29.6734 33.035C30.7415 33.0551 31.4333 32.3975 31.8309 31.9137C32.2025 31.4615 32.5791 30.8334 32.9632 30.1929L33.0833 29.9927C33.5617 29.1954 33.8628 28.6969 34.1293 28.3368C34.375 28.005 34.5169 27.8967 34.6229 27.8369C34.7286 27.7769 34.8946 27.711 35.3054 27.6709C35.7513 27.6276 36.3337 27.6259 37.2636 27.6259H39C39.8974 27.6259 40.625 26.8983 40.625 26.0009C40.625 25.1034 39.8974 24.3759 39 24.3759H37.1934C36.3547 24.3759 35.6128 24.3759 34.991 24.4363C34.3167 24.5018 33.6607 24.6467 33.0215 25.0088C32.3823 25.3706 31.9204 25.8585 31.5174 26.403C31.1456 26.905 30.7641 27.5412 30.3325 28.2605L30.2295 28.4321C30.0417 28.7454 29.8848 29.0063 29.7449 29.2303C29.6131 29.0013 29.4664 28.7346 29.2903 28.4145L25.5866 21.6803C25.2527 21.0728 24.9199 20.4676 24.5826 20.0238C24.2138 19.5391 23.5818 18.8982 22.5689 18.8435C21.5559 18.7888 20.8585 19.358 20.4397 19.8002C20.0565 20.205 19.6605 20.7709 19.2632 21.3389L18.5928 22.2965C18.1007 22.9996 17.7921 23.4377 17.525 23.7536C17.2792 24.0444 17.1425 24.1397 17.0417 24.1921C16.9408 24.2448 16.7844 24.302 16.4051 24.3367C15.9931 24.3744 15.4573 24.3759 14.5991 24.3759H13C12.1025 24.3759 11.375 25.1034 11.375 26.0009C11.375 26.8983 12.1025 27.6259 13 27.6259H14.6643C15.4377 27.6259 16.1233 27.6261 16.7007 27.5732C17.327 27.516 17.9379 27.3897 18.5425 27.0749C19.1471 26.7601 19.601 26.3322 20.007 25.8518C20.3813 25.4089 20.7745 24.8473 21.218 24.2136L21.8686 23.2843Z" fill="#212121"/>
</svg>
