<svg width="36" height="36" viewBox="0 0 36 36" fill="none" xmlns="http://www.w3.org/2000/svg">
<path d="M4.5 6.75H31.5C32.0967 6.75 32.669 6.98705 33.091 7.40901C33.5129 7.83097 33.75 8.40326 33.75 9C33.75 9.59674 33.5129 10.169 33.091 10.591C32.669 11.0129 32.0967 11.25 31.5 11.25H4.5C3.90326 11.25 3.33097 11.0129 2.90901 10.591C2.48705 10.169 2.25 9.59674 2.25 9C2.25 8.40326 2.48705 7.83097 2.90901 7.40901C3.33097 6.98705 3.90326 6.75 4.5 6.75ZM4.5 15.75H31.5C32.0967 15.75 32.669 15.9871 33.091 16.409C33.5129 16.831 33.75 17.4033 33.75 18C33.75 18.5967 33.5129 19.169 33.091 19.591C32.669 20.0129 32.0967 20.25 31.5 20.25H4.5C3.90326 20.25 3.33097 20.0129 2.90901 19.591C2.48705 19.169 2.25 18.5967 2.25 18C2.25 17.4033 2.48705 16.831 2.90901 16.409C3.33097 15.9871 3.90326 15.75 4.5 15.75ZM4.5 24.75H31.5C32.0967 24.75 32.669 24.9871 33.091 25.409C33.5129 25.831 33.75 26.4033 33.75 27C33.75 27.5967 33.5129 28.169 33.091 28.591C32.669 29.0129 32.0967 29.25 31.5 29.25H4.5C3.90326 29.25 3.33097 29.0129 2.90901 28.591C2.48705 28.169 2.25 27.5967 2.25 27C2.25 26.4033 2.48705 25.831 2.90901 25.409C3.33097 24.9871 3.90326 24.75 4.5 24.75Z" fill="#857DCF"/>
</svg>
